
<svg xmlns="http://www.w3.org/2000/svg" version="1.1" xmlns:xlink="http://www.w3.org/1999/xlink" preserveAspectRatio="none" x="0px" y="0px" width="960px" height="640px" viewBox="0 0 960 640">
<defs>
<image id="Bitmap_1" x="0" y="0" width="960" height="640" xlink:href="./images/Bitmap_1.png"/>

<image id="Bitmap_2" x="0" y="0" width="960" height="255" xlink:href="./images/Bitmap_2.png"/>

<image id="Bitmap_3" x="0" y="0" width="300" height="72" xlink:href="./images/Bitmap_3.png"/>

<image id="Bitmap_4" x="0" y="0" width="130" height="130" xlink:href="./images/Bitmap_4.png"/>

<image id="Bitmap_5" x="0" y="0" width="130" height="130" xlink:href="./images/Bitmap_5.png"/>

<image id="Bitmap_6" x="0" y="0" width="130" height="130" xlink:href="./images/Bitmap_6.png"/>

<image id="Bitmap_7" x="0" y="0" width="130" height="130" xlink:href="./images/Bitmap_7.png"/>

<image id="Bitmap_8" x="0" y="0" width="130" height="129" xlink:href="./images/Bitmap_8.png"/>

<filter id="Filter_1" x="-20%" y="-20%" width="140%" height="140%" color-interpolation-filters="sRGB">
<feColorMatrix in="SourceGraphic" type="matrix" values="1 0 0 0 0 0 1 0 0 0 0 0 1 0 0 0 0 0 0 0" result="result1"/>
</filter>

<g id="Tween_12_0_Layer0_0_FILL">
<path fill="#FFFFFF" stroke="none" d="
M 873.15 273.2
Q 864.35 264.4 851.95 264.4
L 112.2 264.4
Q 99.8 264.4 91 273.2 82.2 282 82.2 294.4
L 82.2 536.5
Q 82.2 548.9 91 557.7 99.8 566.5 112.2 566.5
L 851.95 566.5
Q 864.35 566.5 873.15 557.7 881.95 548.9 881.95 536.5
L 881.95 294.4
Q 881.95 282 873.15 273.2 Z"/>
</g>

<path id="Tween_12_0_Layer0_0_1_STROKES" stroke="#FF6600" stroke-width="5" stroke-linejoin="round" stroke-linecap="round" fill="none" d="
M 112.2 264.4
L 851.95 264.4
Q 864.35 264.4 873.15 273.2 881.95 282 881.95 294.4
L 881.95 536.5
Q 881.95 548.9 873.15 557.7 864.35 566.5 851.95 566.5
L 112.2 566.5
Q 99.8 566.5 91 557.7 82.2 548.9 82.2 536.5
L 82.2 294.4
Q 82.2 282 91 273.2 99.8 264.4 112.2 264.4 Z"/>
</defs>

<g transform="matrix( 1, 0, 0, 1, 480,321) ">
<g transform="matrix( 1, 0, 0, 1, -480,-320) ">
<use xlink:href="#Bitmap_1"/>
</g>
</g>

<g transform="matrix( 1, 0, 0, 1, 480,128.5) ">
<g transform="matrix( 1, 0, 0, 1, -480,-127.5) ">
<use xlink:href="#Bitmap_2"/>
</g>
</g>

<g transform="matrix( 1, 0, 0, 1, 509,51) ">
<g transform="matrix( 1, 0, 0, 1, -150,-36) ">
<use xlink:href="#Bitmap_3"/>
</g>
</g>

<g id="about_btn" transform="matrix( 1, 0, 0, 1, 55,18) ">
<g transform="matrix( 1, 0, 0, 1, 0,0) ">
<use xlink:href="#Bitmap_4"/>
</g>
</g>

<g id="ingredients_btn" transform="matrix( 1, 0, 0, 1, 229,81) ">
<g transform="matrix( 1, 0, 0, 1, 0,0) ">
<use xlink:href="#Bitmap_5"/>
</g>
</g>

<g id="menu_btn" transform="matrix( 1, 0, 0, 1, 415,101) ">
<g transform="matrix( 1, 0, 0, 1, 0,0) ">
<use xlink:href="#Bitmap_6"/>
</g>
</g>

<g id="desserts_btn" transform="matrix( 1, 0, 0, 1, 591,81) ">
<g transform="matrix( 1, 0, 0, 1, 0,0) ">
<use xlink:href="#Bitmap_7"/>
</g>
</g>

<g id="beverages_btn" transform="matrix( 1, 0, 0, 1, 764,19) ">
<g transform="matrix( 1, 0, 0, 1, 0,0) ">
<use xlink:href="#Bitmap_8"/>
</g>
</g>

<g transform="matrix( 1, 0, 0, 1, 82.2,284.2) ">
<g transform="matrix( 0.138916015625, 0, 0, 1, 399.85,151.05) ">
<g transform="matrix( 1, 0, 0, 1, -482.05,-415.45) ">
<use filter="url(#Filter_1)" xlink:href="#Tween_12_0_Layer0_0_FILL"/>

<use filter="url(#Filter_1)" xlink:href="#Tween_12_0_Layer0_0_1_STROKES"/>
</g>
</g>
</g>
</svg>
